<svg xmlns="http://www.w3.org/2000/svg" xmlns:xlink="http://www.w3.org/1999/xlink" width="500" zoomAndPan="magnify" viewBox="0 0 375 374.999991" height="500" preserveAspectRatio="xMidYMid meet" version="1.0"><defs><g/></defs><g fill="#f9f6f2" fill-opacity="1"><g transform="translate(41.764523, 188.57819)"><g><path d="M 24.34375 0 L 18.125 -8.96875 L 11.28125 -8.96875 L 11.28125 0 L 3.8125 0 L 3.8125 -32.21875 L 17.765625 -32.21875 C 20.617188 -32.21875 23.09375 -31.738281 25.1875 -30.78125 C 27.289062 -29.832031 28.910156 -28.484375 30.046875 -26.734375 C 31.179688 -24.984375 31.75 -22.910156 31.75 -20.515625 C 31.75 -18.128906 31.171875 -16.066406 30.015625 -14.328125 C 28.867188 -12.597656 27.238281 -11.273438 25.125 -10.359375 L 32.34375 0 Z M 24.203125 -20.515625 C 24.203125 -22.328125 23.617188 -23.71875 22.453125 -24.6875 C 21.285156 -25.65625 19.582031 -26.140625 17.34375 -26.140625 L 11.28125 -26.140625 L 11.28125 -14.90625 L 17.34375 -14.90625 C 19.582031 -14.90625 21.285156 -15.394531 22.453125 -16.375 C 23.617188 -17.363281 24.203125 -18.742188 24.203125 -20.515625 Z M 24.203125 -20.515625 "/></g></g></g><g fill="#f9f6f2" fill-opacity="1"><g transform="translate(85.52396, 188.57819)"><g><path d="M 28.765625 -5.984375 L 28.765625 0 L 3.8125 0 L 3.8125 -32.21875 L 28.15625 -32.21875 L 28.15625 -26.234375 L 11.234375 -26.234375 L 11.234375 -19.234375 L 26.1875 -19.234375 L 26.1875 -13.4375 L 11.234375 -13.4375 L 11.234375 -5.984375 Z M 28.765625 -5.984375 "/></g></g></g><g fill="#f9f6f2" fill-opacity="1"><g transform="translate(126.338835, 188.57819)"><g><path d="M 25.03125 -6.90625 L 10.078125 -6.90625 L 7.21875 0 L -0.421875 0 L 13.9375 -32.21875 L 21.3125 -32.21875 L 35.703125 0 L 27.890625 0 Z M 22.6875 -12.5625 L 17.578125 -24.890625 L 12.46875 -12.5625 Z M 22.6875 -12.5625 "/></g></g></g><g fill="#f9f6f2" fill-opacity="1"><g transform="translate(171.524549, 188.57819)"><g><path d="M 3.8125 -32.21875 L 18.453125 -32.21875 C 21.953125 -32.21875 25.039062 -31.546875 27.71875 -30.203125 C 30.40625 -28.867188 32.492188 -26.988281 33.984375 -24.5625 C 35.472656 -22.144531 36.21875 -19.328125 36.21875 -16.109375 C 36.21875 -12.890625 35.472656 -10.066406 33.984375 -7.640625 C 32.492188 -5.210938 30.40625 -3.332031 27.71875 -2 C 25.039062 -0.664062 21.953125 0 18.453125 0 L 3.8125 0 Z M 18.078125 -6.125 C 21.304688 -6.125 23.878906 -7.019531 25.796875 -8.8125 C 27.710938 -10.601562 28.671875 -13.035156 28.671875 -16.109375 C 28.671875 -19.171875 27.710938 -21.597656 25.796875 -23.390625 C 23.878906 -25.191406 21.304688 -26.09375 18.078125 -26.09375 L 11.28125 -26.09375 L 11.28125 -6.125 Z M 18.078125 -6.125 "/></g></g></g><g fill="#f9f6f2" fill-opacity="1"><g transform="translate(219.470785, 188.57819)"><g><path d="M 27.46875 -16.75 C 29.3125 -16.164062 30.753906 -15.191406 31.796875 -13.828125 C 32.835938 -12.460938 33.359375 -10.78125 33.359375 -8.78125 C 33.359375 -5.96875 32.257812 -3.800781 30.0625 -2.28125 C 27.875 -0.757812 24.679688 0 20.484375 0 L 3.8125 0 L 3.8125 -32.21875 L 19.5625 -32.21875 C 23.488281 -32.21875 26.5 -31.460938 28.59375 -29.953125 C 30.695312 -28.453125 31.75 -26.414062 31.75 -23.84375 C 31.75 -22.269531 31.375 -20.867188 30.625 -19.640625 C 29.875 -18.421875 28.820312 -17.457031 27.46875 -16.75 Z M 11.234375 -26.59375 L 11.234375 -19 L 18.640625 -19 C 20.472656 -19 21.863281 -19.320312 22.8125 -19.96875 C 23.769531 -20.613281 24.25 -21.566406 24.25 -22.828125 C 24.25 -24.078125 23.769531 -25.015625 22.8125 -25.640625 C 21.863281 -26.273438 20.472656 -26.59375 18.640625 -26.59375 Z M 19.921875 -5.609375 C 21.890625 -5.609375 23.367188 -5.929688 24.359375 -6.578125 C 25.359375 -7.222656 25.859375 -8.222656 25.859375 -9.578125 C 25.859375 -12.242188 23.878906 -13.578125 19.921875 -13.578125 L 11.234375 -13.578125 L 11.234375 -5.609375 Z M 19.921875 -5.609375 "/></g></g></g><g fill="#f9f6f2" fill-opacity="1"><g transform="translate(264.610484, 188.57819)"><g><path d="M 3.8125 -32.21875 L 11.28125 -32.21875 L 11.28125 -6.078125 L 27.421875 -6.078125 L 27.421875 0 L 3.8125 0 Z M 3.8125 -32.21875 "/></g></g></g><g fill="#f9f6f2" fill-opacity="1"><g transform="translate(302.342751, 188.57819)"><g><path d="M 28.765625 -5.984375 L 28.765625 0 L 3.8125 0 L 3.8125 -32.21875 L 28.15625 -32.21875 L 28.15625 -26.234375 L 11.234375 -26.234375 L 11.234375 -19.234375 L 26.1875 -19.234375 L 26.1875 -13.4375 L 11.234375 -13.4375 L 11.234375 -5.984375 Z M 28.765625 -5.984375 "/></g></g></g><g fill="#f9f6f2" fill-opacity="1"><g transform="translate(163.553457, 230.898509)"><g><path d="M 5.09375 -11.53125 L 5.09375 0 L 2.421875 0 L 2.421875 -9.390625 L 0.109375 -9.390625 L 0.109375 -11.53125 Z M 5.09375 -11.53125 "/></g></g></g><g fill="#f9f6f2" fill-opacity="1"><g transform="translate(173.566054, 230.898509)"><g><path d="M 4.6875 -11.71875 C 6.300781 -11.71875 7.5625 -11.226562 8.46875 -10.25 C 9.382812 -9.269531 9.84375 -7.859375 9.84375 -6.015625 C 9.84375 -4.703125 9.597656 -3.578125 9.109375 -2.640625 C 8.617188 -1.710938 7.929688 -1.003906 7.046875 -0.515625 C 6.160156 -0.0351562 5.132812 0.203125 3.96875 0.203125 C 3.351562 0.203125 2.765625 0.132812 2.203125 0 C 1.640625 -0.144531 1.164062 -0.34375 0.78125 -0.59375 L 1.765625 -2.546875 C 2.328125 -2.160156 3.046875 -1.96875 3.921875 -1.96875 C 4.898438 -1.96875 5.671875 -2.253906 6.234375 -2.828125 C 6.804688 -3.410156 7.113281 -4.242188 7.15625 -5.328125 C 6.46875 -4.640625 5.515625 -4.296875 4.296875 -4.296875 C 3.554688 -4.296875 2.882812 -4.441406 2.28125 -4.734375 C 1.6875 -5.035156 1.210938 -5.457031 0.859375 -6 C 0.503906 -6.539062 0.328125 -7.171875 0.328125 -7.890625 C 0.328125 -8.660156 0.519531 -9.332031 0.90625 -9.90625 C 1.289062 -10.488281 1.8125 -10.9375 2.46875 -11.25 C 3.132812 -11.5625 3.875 -11.71875 4.6875 -11.71875 Z M 4.890625 -6.296875 C 5.472656 -6.296875 5.945312 -6.457031 6.3125 -6.78125 C 6.6875 -7.101562 6.875 -7.515625 6.875 -8.015625 C 6.875 -8.523438 6.691406 -8.9375 6.328125 -9.25 C 5.972656 -9.570312 5.484375 -9.734375 4.859375 -9.734375 C 4.285156 -9.734375 3.820312 -9.578125 3.46875 -9.265625 C 3.113281 -8.960938 2.9375 -8.546875 2.9375 -8.015625 C 2.9375 -7.492188 3.113281 -7.078125 3.46875 -6.765625 C 3.820312 -6.453125 4.296875 -6.296875 4.890625 -6.296875 Z M 4.890625 -6.296875 "/></g></g></g><g fill="#f9f6f2" fill-opacity="1"><g transform="translate(187.612311, 230.898509)"><g><path d="M 4.6875 -11.71875 C 6.300781 -11.71875 7.5625 -11.226562 8.46875 -10.25 C 9.382812 -9.269531 9.84375 -7.859375 9.84375 -6.015625 C 9.84375 -4.703125 9.597656 -3.578125 9.109375 -2.640625 C 8.617188 -1.710938 7.929688 -1.003906 7.046875 -0.515625 C 6.160156 -0.0351562 5.132812 0.203125 3.96875 0.203125 C 3.351562 0.203125 2.765625 0.132812 2.203125 0 C 1.640625 -0.144531 1.164062 -0.34375 0.78125 -0.59375 L 1.765625 -2.546875 C 2.328125 -2.160156 3.046875 -1.96875 3.921875 -1.96875 C 4.898438 -1.96875 5.671875 -2.253906 6.234375 -2.828125 C 6.804688 -3.410156 7.113281 -4.242188 7.15625 -5.328125 C 6.46875 -4.640625 5.515625 -4.296875 4.296875 -4.296875 C 3.554688 -4.296875 2.882812 -4.441406 2.28125 -4.734375 C 1.6875 -5.035156 1.210938 -5.457031 0.859375 -6 C 0.503906 -6.539062 0.328125 -7.171875 0.328125 -7.890625 C 0.328125 -8.660156 0.519531 -9.332031 0.90625 -9.90625 C 1.289062 -10.488281 1.8125 -10.9375 2.46875 -11.25 C 3.132812 -11.5625 3.875 -11.71875 4.6875 -11.71875 Z M 4.890625 -6.296875 C 5.472656 -6.296875 5.945312 -6.457031 6.3125 -6.78125 C 6.6875 -7.101562 6.875 -7.515625 6.875 -8.015625 C 6.875 -8.523438 6.691406 -8.9375 6.328125 -9.25 C 5.972656 -9.570312 5.484375 -9.734375 4.859375 -9.734375 C 4.285156 -9.734375 3.820312 -9.578125 3.46875 -9.265625 C 3.113281 -8.960938 2.9375 -8.546875 2.9375 -8.015625 C 2.9375 -7.492188 3.113281 -7.078125 3.46875 -6.765625 C 3.820312 -6.453125 4.296875 -6.296875 4.890625 -6.296875 Z M 4.890625 -6.296875 "/></g></g></g><g fill="#f9f6f2" fill-opacity="1"><g transform="translate(201.658568, 230.898509)"><g><path d="M 4.59375 -7.203125 C 6.21875 -7.203125 7.414062 -6.875 8.1875 -6.21875 C 8.96875 -5.570312 9.359375 -4.707031 9.359375 -3.625 C 9.359375 -2.914062 9.179688 -2.273438 8.828125 -1.703125 C 8.472656 -1.128906 7.9375 -0.664062 7.21875 -0.3125 C 6.5 0.03125 5.613281 0.203125 4.5625 0.203125 C 3.75 0.203125 2.945312 0.0976562 2.15625 -0.109375 C 1.375 -0.328125 0.710938 -0.632812 0.171875 -1.03125 L 1.21875 -3.078125 C 1.65625 -2.742188 2.160156 -2.488281 2.734375 -2.3125 C 3.304688 -2.132812 3.894531 -2.046875 4.5 -2.046875 C 5.164062 -2.046875 5.691406 -2.175781 6.078125 -2.4375 C 6.460938 -2.695312 6.65625 -3.066406 6.65625 -3.546875 C 6.65625 -4.035156 6.453125 -4.40625 6.046875 -4.65625 C 5.648438 -4.914062 4.957031 -5.046875 3.96875 -5.046875 L 1.015625 -5.046875 L 1.609375 -11.53125 L 8.640625 -11.53125 L 8.640625 -9.390625 L 3.84375 -9.390625 L 3.65625 -7.203125 Z M 4.59375 -7.203125 "/></g></g></g><path stroke-linecap="butt" transform="matrix(0.749835, 0, 0, 0.75, 248.39905, 226.593487)" fill="none" stroke-linejoin="miter" d="M -0.000816564 1.000351 L 71.025233 1.000351 " stroke="#f9f6f2" stroke-width="2" stroke-opacity="1" stroke-miterlimit="4"/><path stroke-linecap="butt" transform="matrix(0.749835, 0, 0, 0.75, 73.332655, 225.093487)" fill="none" stroke-linejoin="miter" d="M -0.000831696 1.000351 L 71.025218 1.000351 " stroke="#f9f6f2" stroke-width="2" stroke-opacity="1" stroke-miterlimit="4"/></svg>